<svg width="46" height="44" viewBox="0 0 46 44" fill="none" xmlns="http://www.w3.org/2000/svg">
<path d="M23.1394 0.000291501C20.6889 0.00982665 18.2669 0.204344 16.1692 0.498026L17.1418 4.04892C21.137 3.2308 25.3134 3.49397 29.5089 4.05845L30.2526 0.631519C28.0595 0.171924 25.5899 -0.00829014 23.1394 0.000291501ZM14.7103 1.55261C13.7282 1.80244 12.7652 2.09898 11.8498 2.44034C11.0679 2.73116 10.5816 3.35571 10.0286 4.16906C9.47553 4.98146 8.90342 6.02079 8.32177 7.22317C7.14895 9.62603 5.92559 12.6677 4.80521 15.6713C3.72488 18.57 2.74752 21.4115 2.01999 23.5855C2.59878 23.1278 3.31391 22.8322 4.07768 22.8513C4.73846 20.9061 5.54132 18.6081 6.41379 16.272C7.52273 13.2971 8.74132 10.284 9.86647 7.97645C10.429 6.81316 10.9725 5.83008 11.4493 5.13688C11.9261 4.43986 12.3933 4.06703 12.441 4.04796C13.3087 3.72663 14.2145 3.45011 15.1489 3.2165L14.7103 1.55261ZM31.702 2.0513L31.3301 3.75142C32.4076 4.13092 33.4278 4.59147 34.3813 5.13306C34.6579 5.28753 35.1918 5.85869 35.7353 6.75595C36.2693 7.65225 36.851 8.84415 37.4231 10.2267C38.5863 12.9824 39.7496 16.4818 40.789 19.9049C41.0846 20.8966 41.3801 21.8787 41.6567 22.8322C42.3527 22.9276 43.0011 23.2613 43.516 23.7381C43.6018 23.8143 43.6781 23.8906 43.7544 23.9764C43.3444 22.5176 42.9058 20.9729 42.429 19.4091C41.3897 15.9478 40.2073 12.4103 39.0059 9.55928C38.4147 8.12901 37.8045 6.8799 37.2038 5.86822C36.5935 4.86131 36.0119 4.08801 35.2395 3.64367C34.1239 3.01054 32.9415 2.48229 31.702 2.0513ZM28.6316 16.8918L16.5888 16.9967L16.5411 17.0062C13.6519 17.3114 11.4493 19.9145 11.0393 23.2994C11.6209 23.328 12.193 23.3566 12.7556 23.3757C13.118 20.7249 14.7961 18.9228 16.7127 18.713L28.4696 18.6081C29.957 18.8561 31.5494 20.3817 31.9594 23.2708C32.522 23.2422 33.0941 23.2232 33.6757 23.1946C33.2085 19.6189 31.1489 17.2828 28.6984 16.9014L28.6316 16.8918ZM41.2085 24.5295C38.6817 24.663 36.2788 24.7965 33.9618 24.9013C35.4684 30.7178 35.4016 36.5914 35.3921 42.3697C38.1668 42.1028 41.0178 41.7881 43.9737 41.4353C44.0309 41.4258 44.1835 41.3686 44.4028 40.949C44.6221 40.539 44.8319 39.862 44.9654 39.0229C45.2419 37.3447 45.2705 35.0658 45.0321 32.806C44.7842 30.5557 44.2598 28.3245 43.5351 26.7607C43.1728 25.9788 42.7627 25.3686 42.3623 25.0062C41.9523 24.6439 41.609 24.5104 41.2085 24.5295ZM3.9356 24.5676C3.61045 24.5772 3.32726 24.7106 2.98972 25.0253C2.60354 25.3781 2.19925 25.9884 1.84645 26.7702C1.1418 28.3435 0.638348 30.6034 0.387573 32.8918C0.136799 35.1802 0.132985 37.5068 0.353247 39.2327C0.462901 40.0908 0.634534 40.806 0.818562 41.2351C1.00354 41.6737 1.15897 41.7023 1.04836 41.6832C3.94419 42.1695 6.76468 42.5223 9.55181 42.7702C9.01784 37.2208 9.21808 31.3471 10.6865 24.9967C8.57922 24.9013 6.38518 24.7583 4.07863 24.5772C4.03 24.5772 3.98233 24.5676 3.9356 24.5676ZM32.2073 24.9776C25.4946 25.2637 19.3539 25.3686 12.4219 25.0825C10.9058 31.4711 10.7151 37.3161 11.2872 42.9132C18.7056 43.4472 25.9332 43.2088 33.6757 42.5223C33.6853 36.5533 33.752 30.6606 32.2073 24.9776Z" fill="#DFAA5B"/>
</svg>
