<svg width="28" height="36" viewBox="0 0 28 36" fill="none" xmlns="http://www.w3.org/2000/svg">
<path d="M24.5 0.796736L3.5 0.779236C2.57174 0.779236 1.6815 1.14798 1.02513 1.80436C0.368749 2.46074 0 3.35098 0 4.27924V32.2792C0 34.2042 1.575 35.7792 3.5 35.7792H24.5C26.425 35.7792 28 34.2042 28 32.2792V4.27924C28 2.33674 26.425 0.796736 24.5 0.796736ZM24.5 32.2792H3.5V16.4942H24.5V32.2792ZM24.5 13.0292H3.5V4.27924H24.5V13.0292ZM7 6.02924H10.5V11.2792H7V6.02924ZM7 18.2792H10.5V27.0292H7V18.2792Z" fill="#DFAA5B"/>
</svg>
