<svg width="45" height="46" viewBox="0 0 45 46" fill="none" xmlns="http://www.w3.org/2000/svg">
<path d="M5.625 28.9042C10.2806 28.9042 13.7719 23.2792 13.7719 23.2792C13.7719 23.2792 17.2631 28.9042 21.9187 28.9042C26.5725 28.9042 31.2281 23.2792 31.2281 23.2792C31.2281 23.2792 35.8838 28.9042 39.375 28.9042M5.625 38.2792C10.2806 38.2792 13.7719 32.6542 13.7719 32.6542C13.7719 32.6542 17.2631 38.2792 21.9187 38.2792C26.5725 38.2792 31.2281 32.6542 31.2281 32.6542C31.2281 32.6542 35.8838 38.2792 39.375 38.2792M9.375 20.4667L16.875 15.7792L14.6494 12.9967C14.4516 12.7493 14.3056 12.4647 14.2199 12.1598C14.1342 11.8549 14.1105 11.5358 14.1504 11.2216C14.1903 10.9074 14.2928 10.6044 14.452 10.3305C14.6111 10.0567 14.8236 9.81756 15.0769 9.62736C15.562 9.26342 16.1683 9.09978 16.7707 9.17027C17.373 9.24076 17.9252 9.54 18.3131 10.0061L26.25 19.5292M30.9375 15.7792C32.1807 15.7792 33.373 15.2854 34.2521 14.4063C35.1311 13.5272 35.625 12.3349 35.625 11.0917C35.625 9.84853 35.1311 8.65625 34.2521 7.77717C33.373 6.8981 32.1807 6.40424 30.9375 6.40424C29.6943 6.40424 28.502 6.8981 27.6229 7.77717C26.7439 8.65625 26.25 9.84853 26.25 11.0917C26.25 12.3349 26.7439 13.5272 27.6229 14.4063C28.502 15.2854 29.6943 15.7792 30.9375 15.7792Z" stroke="#DFAA5B" stroke-width="3.25" stroke-linecap="round" stroke-linejoin="round"/>
</svg>
