<svg width="45" height="46" viewBox="0 0 45 46" fill="none" xmlns="http://www.w3.org/2000/svg">
<g clip-path="url(#clip0_2_35)">
<path d="M9.9375 27.5449C9.375 26.9824 9.10938 26.3105 9.14062 25.5292C9.17188 24.748 9.48438 24.1386 10.0781 23.7011C11.7969 22.3886 13.7112 21.3649 15.8212 20.6299C17.93 19.8961 20.1562 19.5292 22.5 19.5292C24.875 19.5292 27.1175 19.9042 29.2275 20.6542C31.3363 21.4042 33.25 22.4511 34.9688 23.7949C35.5625 24.2324 35.8675 24.8342 35.8838 25.6005C35.8988 26.3655 35.625 27.0292 35.0625 27.5917C34.5312 28.123 33.8831 28.3967 33.1181 28.413C32.3519 28.428 31.6406 28.2167 30.9844 27.7792C29.7656 26.9355 28.4456 26.2874 27.0244 25.8349C25.6019 25.3811 24.0938 25.1542 22.5 25.1542C20.9062 25.1542 19.3988 25.3886 17.9775 25.8574C16.555 26.3261 15.25 26.9667 14.0625 27.7792C13.375 28.248 12.6487 28.4592 11.8837 28.413C11.1175 28.3655 10.4688 28.0761 9.9375 27.5449ZM1.96875 19.623C1.4375 19.0917 1.17188 18.443 1.17188 17.6767C1.17188 16.9117 1.45313 16.2792 2.01563 15.7792C4.79688 13.4355 7.92187 11.5992 11.3906 10.2705C14.8594 8.94299 18.5625 8.27924 22.5 8.27924C26.4375 8.27924 30.1406 8.94299 33.6094 10.2705C37.0781 11.5992 40.2031 13.4355 42.9844 15.7792C43.5469 16.2792 43.8363 16.9042 43.8525 17.6542C43.8675 18.4042 43.5938 19.0605 43.0312 19.623C42.5 20.1542 41.8519 20.4355 41.0869 20.4667C40.3206 20.498 39.625 20.2636 39 19.7636C36.7188 17.9199 34.18 16.4824 31.3838 15.4511C28.5863 14.4199 25.625 13.9042 22.5 13.9042C19.375 13.9042 16.4144 14.4199 13.6181 15.4511C10.8206 16.4824 8.28125 17.9199 6 19.7636C5.375 20.2636 4.68 20.498 3.915 20.4667C3.14875 20.4355 2.5 20.1542 1.96875 19.623ZM22.5 38.2792C21.4375 38.2792 20.5469 37.9199 19.8281 37.2011C19.1094 36.4824 18.75 35.5917 18.75 34.5292C18.75 33.4667 19.1094 32.5761 19.8281 31.8574C20.5469 31.1386 21.4375 30.7792 22.5 30.7792C23.5625 30.7792 24.4531 31.1386 25.1719 31.8574C25.8906 32.5761 26.25 33.4667 26.25 34.5292C26.25 35.5917 25.8906 36.4824 25.1719 37.2011C24.4531 37.9199 23.5625 38.2792 22.5 38.2792Z" fill="#DFAA5B"/>
</g>
<defs>
<clipPath id="clip0_2_35">
<path d="M0 10.7792C0 5.25639 4.47715 0.779236 10 0.779236H35C40.5228 0.779236 45 5.25639 45 10.7792V45.7792H0V10.7792Z" fill="white"/>
</clipPath>
</defs>
</svg>
